<svg xmlns="http://www.w3.org/2000/svg" viewBox="0 0 80 48" width="80" height="48">
  <defs>
    <linearGradient id="acsTop" x1="0" y1="0" x2="0" y2="1">
      <stop offset="0%" stop-color="#a8b8c8"/>
      <stop offset="100%" stop-color="#7a8a9c"/>
    </linearGradient>
    <linearGradient id="acsFront" x1="0" y1="0" x2="0" y2="1">
      <stop offset="0%" stop-color="#c0cdd8"/>
      <stop offset="100%" stop-color="#94a3b3"/>
    </linearGradient>
  </defs>
  <polygon points="8,20 72,20 76,16 12,16" fill="url(#acsTop)" stroke="#5a6776" stroke-width="0.6"/>
  <polygon points="72,20 76,16 76,38 72,42" fill="#7a8a9c" stroke="#5a6776" stroke-width="0.6"/>
  <rect x="8" y="20" width="64" height="22" fill="url(#acsFront)" stroke="#5a6776" stroke-width="0.8"/>
  <rect x="12" y="25" width="56" height="8" fill="#1a2e4a" stroke="#0d1b2e" stroke-width="0.5"/>
  <rect x="14" y="26.5" width="2.5" height="5" fill="#67e23a"/>
  <rect x="18" y="26.5" width="2.5" height="5" fill="#67e23a"/>
  <rect x="22" y="26.5" width="2.5" height="5" fill="#67e23a"/>
  <rect x="26" y="26.5" width="2.5" height="5" fill="#67e23a"/>
  <rect x="30" y="26.5" width="2.5" height="5" fill="#67e23a"/>
  <rect x="34" y="26.5" width="2.5" height="5" fill="#67e23a"/>
  <rect x="38" y="26.5" width="2.5" height="5" fill="#67e23a"/>
  <rect x="42" y="26.5" width="2.5" height="5" fill="#67e23a"/>
  <rect x="46" y="26.5" width="2.5" height="5" fill="#67e23a"/>
  <rect x="50" y="26.5" width="2.5" height="5" fill="#67e23a"/>
  <rect x="54" y="26.5" width="2.5" height="5" fill="#67e23a"/>
  <rect x="58" y="26.5" width="2.5" height="5" fill="#67e23a"/>
  <rect x="62" y="26.5" width="2.5" height="5" fill="#67e23a"/>
  <rect x="66" y="26.5" width="2.5" height="5" fill="#67e23a"/>
  <circle cx="14" cy="37" r="1.2" fill="#67e23a"/>
</svg>
