<svg xmlns="http://www.w3.org/2000/svg" viewBox="0 0 80 48" width="80" height="48">
  <defs>
    <linearGradient id="csTop" x1="0" y1="0" x2="0" y2="1">
      <stop offset="0%" stop-color="#4a6f9c"/>
      <stop offset="100%" stop-color="#2c4a6e"/>
    </linearGradient>
    <linearGradient id="csFront" x1="0" y1="0" x2="0" y2="1">
      <stop offset="0%" stop-color="#5b82b0"/>
      <stop offset="100%" stop-color="#3a5a82"/>
    </linearGradient>
  </defs>
  <!-- 立体顶面 -->
  <polygon points="8,12 72,12 76,8 12,8" fill="url(#csTop)" stroke="#1f3553" stroke-width="0.6"/>
  <polygon points="72,12 76,8 76,38 72,42" fill="#2c4a6e" stroke="#1f3553" stroke-width="0.6"/>
  <!-- 主体正面 -->
  <rect x="8" y="12" width="64" height="30" fill="url(#csFront)" stroke="#1f3553" stroke-width="0.8"/>
  <!-- 端口面板 -->
  <rect x="12" y="20" width="56" height="10" fill="#1a2e4a" stroke="#0d1b2e" stroke-width="0.5"/>
  <!-- 端口指示灯 -->
  <rect x="14" y="22" width="3" height="6" fill="#67e23a"/>
  <rect x="19" y="22" width="3" height="6" fill="#67e23a"/>
  <rect x="24" y="22" width="3" height="6" fill="#67e23a"/>
  <rect x="29" y="22" width="3" height="6" fill="#e6a23c"/>
  <rect x="34" y="22" width="3" height="6" fill="#67e23a"/>
  <rect x="39" y="22" width="3" height="6" fill="#67e23a"/>
  <rect x="44" y="22" width="3" height="6" fill="#67e23a"/>
  <rect x="49" y="22" width="3" height="6" fill="#67e23a"/>
  <rect x="54" y="22" width="3" height="6" fill="#67e23a"/>
  <rect x="59" y="22" width="3" height="6" fill="#67e23a"/>
  <rect x="64" y="22" width="3" height="6" fill="#67e23a"/>
  <!-- 状态灯 -->
  <circle cx="14" cy="36" r="1.2" fill="#67e23a"/>
  <circle cx="18" cy="36" r="1.2" fill="#67e23a"/>
  <circle cx="22" cy="36" r="1.2" fill="#e6a23c"/>
</svg>
